  0
SECTION
  2
HEADER
  9
$ACADVER
  1
AC1009
  9
$INSBASE
 10
0.0
 20
0.0
 30
0.0
  9
$EXTMIN
 10
0.0
 20
0.0
 30
0.0
  9
$EXTMAX
 10
100.0
 20
100.0
 30
0.0
  9
$UNITMODE
 70
0
  9
$AUNITS
 70
0
  9
$ANGBASE
 50
0.0
  9
$ANGDIR
 70
0
  0
ENDSEC
  0
SECTION
  2
TABLES
  0
TABLE
  2
LTYPE
 70
19
  0
LTYPE
  2
CONTINUOUS
 70
0
  3
Solid
 72
65
 73
0
 40
0.0
  0
LTYPE
  2
CENTER
 70
0
  3
Center ____ _ ____ _ ____ _ ____ _ ____ _ ____
 72
65
 73
4
 40
2.0
 49
1.25
 49
-0.25
 49
0.25
 49
-0.25
  0
LTYPE
  2
CENTERX2
 70
0
  3
Center (2x) ________  __  ________  __  ________
 72
65
 73
4
 40
3.5
 49
2.5
 49
-0.25
 49
0.5
 49
-0.25
  0
LTYPE
  2
CENTER2
 70
0
  3
Center (.5x) ____ _ ____ _ ____ _ ____ _ ____
 72
65
 73
4
 40
1.0
 49
0.625
 49
-0.125
 49
0.125
 49
-0.125
  0
LTYPE
  2
DASHED
 70
0
  3
Dashed __ __ __ __ __ __ __ __ __ __ __ __ __ _
 72
65
 73
2
 40
0.6
 49
0.5
 49
-0.1
  0
LTYPE
  2
DASHEDX2
 70
0
  3
Dashed (2x) ____  ____  ____  ____  ____  ____
 72
65
 73
2
 40
1.2
 49
1.0
 49
-0.2
  0
LTYPE
  2
DASHED2
 70
0
  3
Dashed (.5x) _ _ _ _ _ _ _ _ _ _ _ _ _ _
 72
65
 73
2
 40
0.3
 49
0.25
 49
-0.05
  0
LTYPE
  2
PHANTOM
 70
0
  3
Phantom ______  __  __  ______  __  __  ______
 72
65
 73
6
 40
2.5
 49
1.25
 49
-0.25
 49
0.25
 49
-0.25
 49
0.25
 49
-0.25
  0
LTYPE
  2
PHANTOMX2
 70
0
  3
Phantom (2x)____________    ____    ____    ____________
 72
65
 73
6
 40
4.25
 49
2.5
 49
-0.25
 49
0.5
 49
-0.25
 49
0.5
 49
-0.25
  0
LTYPE
  2
PHANTOM2
 70
0
  3
Phantom (.5x) ___ _ _ ___ _ _ ___ _ _ ___ _ _ ___
 72
65
 73
6
 40
1.25
 49
0.625
 49
-0.125
 49
0.125
 49
-0.125
 49
0.125
 49
-0.125
  0
LTYPE
  2
DASHDOT
 70
0
  3
Dash dot __ . __ . __ . __ . __ . __ . __ . __
 72
65
 73
4
 40
1.4
 49
1.0
 49
-0.2
 49
0.0
 49
-0.2
  0
LTYPE
  2
DASHDOTX2
 70
0
  3
Dash dot (2x) ____  .  ____  .  ____  .  ____
 72
65
 73
4
 40
2.4
 49
2.0
 49
-0.2
 49
0.0
 49
-0.2
  0
LTYPE
  2
DASHDOT2
 70
0
  3
Dash dot (.5x) _ . _ . _ . _ . _ . _ . _ . _
 72
65
 73
4
 40
0.7
 49
0.5
 49
-0.1
 49
0.0
 49
-0.1
  0
LTYPE
  2
DOT
 70
0
  3
Dot .  .  .  .  .  .  .  .  .  .  .  .  .  .  .  .
 72
65
 73
2
 40
0.2
 49
0.0
 49
-0.2
  0
LTYPE
  2
DOTX2
 70
0
  3
Dot (2x) .    .    .    .    .    .    .    . 
 72
65
 73
2
 40
0.4
 49
0.0
 49
-0.4
  0
LTYPE
  2
DOT2
 70
0
  3
Dot (.5) . . . . . . . . . . . . . . . . . . . 
 72
65
 73
2
 40
0.1
 49
0.0
 49
-0.1
  0
LTYPE
  2
DIVIDE
 70
0
  3
Divide __ . . __ . . __ . . __ . . __ . . __
 72
65
 73
6
 40
1.6
 49
1.0
 49
-0.2
 49
0.0
 49
-0.2
 49
0.0
 49
-0.2
  0
LTYPE
  2
DIVIDEX2
 70
0
  3
Divide (2x) ____  . .  ____  . .  ____  . .  ____
 72
65
 73
6
 40
2.6
 49
2.0
 49
-0.2
 49
0.0
 49
-0.2
 49
0.0
 49
-0.2
  0
LTYPE
  2
DIVIDE2
 70
0
  3
Divide(.5x) _ . _ . _ . _ . _ . _ . _ . _
 72
65
 73
6
 40
0.8
 49
0.5
 49
-0.1
 49
0.0
 49
-0.1
 49
0.0
 49
-0.1
  0
ENDTAB
  0
TABLE
  2
LAYER
 70
5
  0
LAYER
  2
DIMENSIONS
 70
0
 62
1
  6
CONTINUOUS
  0
LAYER
  2
TABLEBACKGROUND
 70
0
 62
1
  6
CONTINUOUS
  0
LAYER
  2
TABLECONTENT
 70
0
 62
1
  6
CONTINUOUS
  0
LAYER
  2
TABLEGRID
 70
0
 62
1
  6
CONTINUOUS
  0
LAYER
  2
VIEWPORTS
 70
0
 62
7
  6
CONTINUOUS
  0
ENDTAB
  0
TABLE
  2
STYLE
 70
12
  0
STYLE
  2
STANDARD
 70
0
 40
0.0
 41
1.0
 42
1.0
 50
0.0
 71
0
  3
arial.ttf
  4

  0
STYLE
  2
ARIAL
 70
0
 40
0.0
 41
1.0
 42
1.0
 50
0.0
 71
0
  3
arial.ttf
  4

  0
STYLE
  2
ARIAL_BOLD
 70
0
 40
0.0
 41
1.0
 42
1.0
 50
0.0
 71
0
  3
arialbd.ttf
  4

  0
STYLE
  2
ARIAL_ITALIC
 70
0
 40
0.0
 41
1.0
 42
1.0
 50
0.0
 71
0
  3
ariali.ttf
  4

  0
STYLE
  2
ARIAL_BOLD_ITALIC
 70
0
 40
0.0
 41
1.0
 42
1.0
 50
0.0
 71
0
  3
arialbi.ttf
  4

  0
STYLE
  2
ARIAL_BLACK
 70
0
 40
0.0
 41
1.0
 42
1.0
 50
0.0
 71
0
  3
ariblk.ttf
  4

  0
STYLE
  2
ISOCPEUR
 70
0
 40
0.0
 41
1.0
 42
1.0
 50
0.0
 71
0
  3
isocpeur.ttf
  4

  0
STYLE
  2
ISOCPEUR_ITALIC
 70
0
 40
0.0
 41
1.0
 42
1.0
 50
0.0
 71
0
  3
isocpeui.ttf
  4

  0
STYLE
  2
TIMES
 70
0
 40
0.0
 41
1.0
 42
1.0
 50
0.0
 71
0
  3
times.ttf
  4

  0
STYLE
  2
TIMES_BOLD
 70
0
 40
0.0
 41
1.0
 42
1.0
 50
0.0
 71
0
  3
timesbd.ttf
  4

  0
STYLE
  2
TIMES_ITALIC
 70
0
 40
0.0
 41
1.0
 42
1.0
 50
0.0
 71
0
  3
timesi.ttf
  4

  0
STYLE
  2
TIMES_BOLD_ITALIC
 70
0
 40
0.0
 41
1.0
 42
1.0
 50
0.0
 71
0
  3
timesbi.ttf
  4

  0
ENDTAB
  0
TABLE
  2
VIEW
 70
0
  0
ENDTAB
  0
TABLE
  2
APPID
 70
1
  0
APPID
  2
DXFWRITE
 70
0
  0
ENDTAB
  0
TABLE
  2
VPORT
 70
0
  0
ENDTAB
  0
TABLE
  2
UCS
 70
0
  0
ENDTAB
  0
ENDSEC
  0
SECTION
  2
BLOCKS
  0
ENDSEC
  0
SECTION
  2
ENTITIES
  0
VIEWPORT
  8
VIEWPORTS
 67
1
 10
0.0
 20
0.0
 30
0.0
 40
1.0
 41
1.0
 68
1
 69
1
1001
ACAD
1000
MVIEW
1002
{
1070
16
1010
0.0
1020
0.0
1030
0.0
1010
0.0
1020
0.0
1030
0.0
1040
0.0
1040
1.0
1040
0.0
1040
0.0
1040
50.0
1040
0.0
1040
0.0
1070
0
1070
100
1070
1
1070
3
1070
0
1070
0
1070
0
1070
0
1040
0.0
1040
0.0
1040
0.0
1040
0.1
1040
0.1
1040
0.1
1040
0.1
1070
0
1002
{
1002
}
1002
}
  0
ARC
  8
0
 10
0.0
 20
0.0
 30
0.0
 40
6.0
 50
19.47122063449069
 51
40.52877936550931
  0
ARC
  8
0
 10
0.0
 20
0.0
 30
0.0
 40
6.0
 50
79.47122063449069
 51
100.52877936550931
  0
ARC
  8
0
 10
0.0
 20
0.0
 30
0.0
 40
6.0
 50
139.4712206344907
 51
160.5287793655093
  0
ARC
  8
0
 10
0.0
 20
0.0
 30
0.0
 40
6.0
 50
199.4712206344907
 51
220.5287793655093
  0
ARC
  8
0
 10
0.0
 20
0.0
 30
0.0
 40
6.0
 50
259.4712206344907
 51
280.5287793655093
  0
ARC
  8
0
 10
0.0
 20
0.0
 30
0.0
 40
6.0
 50
319.4712206344907
 51
340.5287793655093
  0
LINE
  8
0
 10
1.0963763171773127
 20
5.898979485566356
 30
0.0
 11
5.439522067684933
 21
13.421528590122415
 31
0.0
  0
LINE
  8
0
 10
4.560477932315067
 20
3.8989794855663558
 30
0.0
 11
8.903623682822687
 21
11.421528590122415
 31
0.0
  0
LINE
  8
0
 10
5.65685424949238
 20
2.0
 30
0.0
 11
14.34314575050762
 21
2.0
 31
0.0
  0
LINE
  8
0
 10
5.65685424949238
 20
-2.0
 30
0.0
 11
14.34314575050762
 21
-2.0
 31
0.0
  0
ARC
  8
0
 10
10.0
 20
17.32050807568877
 30
0.0
 40
6.0
 50
19.47122063449069
 51
40.52877936550931
  0
ARC
  8
0
 10
10.0
 20
17.32050807568877
 30
0.0
 40
6.0
 50
79.47122063449069
 51
100.52877936550931
  0
ARC
  8
0
 10
10.0
 20
17.32050807568877
 30
0.0
 40
6.0
 50
139.4712206344907
 51
160.5287793655093
  0
ARC
  8
0
 10
10.0
 20
17.32050807568877
 30
0.0
 40
6.0
 50
199.4712206344907
 51
220.5287793655093
  0
ARC
  8
0
 10
10.0
 20
17.32050807568877
 30
0.0
 40
6.0
 50
259.4712206344907
 51
280.5287793655093
  0
ARC
  8
0
 10
10.0
 20
17.32050807568877
 30
0.0
 40
6.0
 50
319.4712206344907
 51
340.5287793655093
  0
LINE
  8
0
 10
11.096376317177313
 20
23.21948756125513
 30
0.0
 11
15.439522067684932
 21
30.742036665811185
 31
0.0
  0
LINE
  8
0
 10
14.560477932315067
 20
21.21948756125513
 30
0.0
 11
18.903623682822687
 21
28.742036665811185
 31
0.0
  0
LINE
  8
0
 10
14.560477932315067
 20
13.421528590122415
 30
0.0
 11
18.903623682822687
 21
5.898979485566356
 31
0.0
  0
LINE
  8
0
 10
11.096376317177313
 20
11.421528590122415
 30
0.0
 11
15.439522067684932
 21
3.8989794855663558
 31
0.0
  0
LINE
  8
0
 10
15.65685424949238
 20
19.32050807568877
 30
0.0
 11
24.34314575050762
 21
19.32050807568877
 31
0.0
  0
LINE
  8
0
 10
15.65685424949238
 20
15.320508075688771
 30
0.0
 11
24.34314575050762
 21
15.320508075688771
 31
0.0
  0
ARC
  8
0
 10
0.0
 20
34.64101615137754
 30
0.0
 40
6.0
 50
19.47122063449069
 51
40.52877936550931
  0
ARC
  8
0
 10
0.0
 20
34.64101615137754
 30
0.0
 40
6.0
 50
79.47122063449069
 51
100.52877936550931
  0
ARC
  8
0
 10
0.0
 20
34.64101615137754
 30
0.0
 40
6.0
 50
139.4712206344907
 51
160.5287793655093
  0
ARC
  8
0
 10
0.0
 20
34.64101615137754
 30
0.0
 40
6.0
 50
199.4712206344907
 51
220.5287793655093
  0
ARC
  8
0
 10
0.0
 20
34.64101615137754
 30
0.0
 40
6.0
 50
259.4712206344907
 51
280.5287793655093
  0
ARC
  8
0
 10
0.0
 20
34.64101615137754
 30
0.0
 40
6.0
 50
319.4712206344907
 51
340.5287793655093
  0
LINE
  8
0
 10
1.0963763171773127
 20
40.5399956369439
 30
0.0
 11
5.439522067684933
 21
48.062544741499956
 31
0.0
  0
LINE
  8
0
 10
4.560477932315067
 20
38.5399956369439
 30
0.0
 11
8.903623682822687
 21
46.062544741499956
 31
0.0
  0
LINE
  8
0
 10
4.560477932315067
 20
30.742036665811185
 30
0.0
 11
8.903623682822687
 21
23.21948756125513
 31
0.0
  0
LINE
  8
0
 10
1.0963763171773127
 20
28.742036665811185
 30
0.0
 11
5.439522067684933
 21
21.21948756125513
 31
0.0
  0
LINE
  8
0
 10
5.65685424949238
 20
36.64101615137754
 30
0.0
 11
14.34314575050762
 21
36.64101615137754
 31
0.0
  0
LINE
  8
0
 10
5.65685424949238
 20
32.64101615137754
 30
0.0
 11
14.34314575050762
 21
32.64101615137754
 31
0.0
  0
ARC
  8
0
 10
10.0
 20
51.96152422706631
 30
0.0
 40
6.0
 50
19.47122063449069
 51
40.52877936550931
  0
ARC
  8
0
 10
10.0
 20
51.96152422706631
 30
0.0
 40
6.0
 50
79.47122063449069
 51
100.52877936550931
  0
ARC
  8
0
 10
10.0
 20
51.96152422706631
 30
0.0
 40
6.0
 50
139.4712206344907
 51
160.5287793655093
  0
ARC
  8
0
 10
10.0
 20
51.96152422706631
 30
0.0
 40
6.0
 50
199.4712206344907
 51
220.5287793655093
  0
ARC
  8
0
 10
10.0
 20
51.96152422706631
 30
0.0
 40
6.0
 50
259.4712206344907
 51
280.5287793655093
  0
ARC
  8
0
 10
10.0
 20
51.96152422706631
 30
0.0
 40
6.0
 50
319.4712206344907
 51
340.5287793655093
  0
LINE
  8
0
 10
14.560477932315067
 20
48.062544741499956
 30
0.0
 11
18.903623682822687
 21
40.5399956369439
 31
0.0
  0
LINE
  8
0
 10
11.096376317177313
 20
46.062544741499956
 30
0.0
 11
15.439522067684932
 21
38.5399956369439
 31
0.0
  0
ARC
  8
0
 10
0.0
 20
69.28203230275508
 30
0.0
 40
6.0
 50
19.47122063449069
 51
40.52877936550931
  0
ARC
  8
0
 10
0.0
 20
69.28203230275508
 30
0.0
 40
6.0
 50
79.47122063449069
 51
100.52877936550931
  0
ARC
  8
0
 10
0.0
 20
69.28203230275508
 30
0.0
 40
6.0
 50
139.4712206344907
 51
160.5287793655093
  0
ARC
  8
0
 10
0.0
 20
69.28203230275508
 30
0.0
 40
6.0
 50
199.4712206344907
 51
220.5287793655093
  0
ARC
  8
0
 10
0.0
 20
69.28203230275508
 30
0.0
 40
6.0
 50
259.4712206344907
 51
280.5287793655093
  0
ARC
  8
0
 10
0.0
 20
69.28203230275508
 30
0.0
 40
6.0
 50
319.4712206344907
 51
340.5287793655093
  0
LINE
  8
0
 10
4.560477932315067
 20
65.38305281718873
 30
0.0
 11
8.903623682822687
 21
57.86050371263267
 31
0.0
  0
LINE
  8
0
 10
1.0963763171773127
 20
63.38305281718873
 30
0.0
 11
5.439522067684933
 21
55.86050371263267
 31
0.0
  0
ARC
  8
0
 10
20.0
 20
0.0
 30
0.0
 40
6.0
 50
19.47122063449069
 51
40.52877936550931
  0
ARC
  8
0
 10
20.0
 20
0.0
 30
0.0
 40
6.0
 50
79.47122063449069
 51
100.52877936550931
  0
ARC
  8
0
 10
20.0
 20
0.0
 30
0.0
 40
6.0
 50
139.4712206344907
 51
160.5287793655093
  0
ARC
  8
0
 10
20.0
 20
0.0
 30
0.0
 40
6.0
 50
199.4712206344907
 51
220.5287793655093
  0
ARC
  8
0
 10
20.0
 20
0.0
 30
0.0
 40
6.0
 50
259.4712206344907
 51
280.5287793655093
  0
ARC
  8
0
 10
20.0
 20
0.0
 30
0.0
 40
6.0
 50
319.4712206344907
 51
340.5287793655093
  0
LINE
  8
0
 10
21.096376317177313
 20
5.898979485566356
 30
0.0
 11
25.43952206768493
 21
13.421528590122415
 31
0.0
  0
LINE
  8
0
 10
24.56047793231507
 20
3.8989794855663558
 30
0.0
 11
28.903623682822687
 21
11.421528590122415
 31
0.0
  0
ARC
  8
0
 10
30.0
 20
17.32050807568877
 30
0.0
 40
6.0
 50
19.47122063449069
 51
40.52877936550931
  0
ARC
  8
0
 10
30.0
 20
17.32050807568877
 30
0.0
 40
6.0
 50
79.47122063449069
 51
100.52877936550931
  0
ARC
  8
0
 10
30.0
 20
17.32050807568877
 30
0.0
 40
6.0
 50
139.4712206344907
 51
160.5287793655093
  0
ARC
  8
0
 10
30.0
 20
17.32050807568877
 30
0.0
 40
6.0
 50
199.4712206344907
 51
220.5287793655093
  0
ARC
  8
0
 10
30.0
 20
17.32050807568877
 30
0.0
 40
6.0
 50
259.4712206344907
 51
280.5287793655093
  0
ARC
  8
0
 10
30.0
 20
17.32050807568877
 30
0.0
 40
6.0
 50
319.4712206344907
 51
340.5287793655093
  0
ARC
  8
0
 10
20.0
 20
34.64101615137754
 30
0.0
 40
6.0
 50
19.47122063449069
 51
40.52877936550931
  0
ARC
  8
0
 10
20.0
 20
34.64101615137754
 30
0.0
 40
6.0
 50
79.47122063449069
 51
100.52877936550931
  0
ARC
  8
0
 10
20.0
 20
34.64101615137754
 30
0.0
 40
6.0
 50
139.4712206344907
 51
160.5287793655093
  0
ARC
  8
0
 10
20.0
 20
34.64101615137754
 30
0.0
 40
6.0
 50
199.4712206344907
 51
220.5287793655093
  0
ARC
  8
0
 10
20.0
 20
34.64101615137754
 30
0.0
 40
6.0
 50
259.4712206344907
 51
280.5287793655093
  0
ARC
  8
0
 10
20.0
 20
34.64101615137754
 30
0.0
 40
6.0
 50
319.4712206344907
 51
340.5287793655093
  0
LINE
  8
0
 10
24.56047793231507
 20
30.742036665811185
 30
0.0
 11
28.903623682822687
 21
23.21948756125513
 31
0.0
  0
LINE
  8
0
 10
21.096376317177313
 20
28.742036665811185
 30
0.0
 11
25.43952206768493
 21
21.21948756125513
 31
0.0
  0
ARC
  8
0
 10
0.0
 20
0.0
 30
0.0
 40
6.0
 50
-437.88488253796277
 51
-398.9424412689814
  0
ARC
  8
0
 10
0.0
 20
0.0
 30
0.0
 40
6.0
 50
-497.88488253796277
 51
-458.9424412689814
  0
ARC
  8
0
 10
0.0
 20
0.0
 30
0.0
 40
6.0
 50
-557.8848825379628
 51
-518.9424412689814
  0
ARC
  8
0
 10
0.0
 20
0.0
 30
0.0
 40
6.0
 50
-617.8848825379628
 51
-578.9424412689814
  0
ARC
  8
0
 10
10.0
 20
17.32050807568877
 30
0.0
 40
6.0
 50
-557.8848825379628
 51
-518.9424412689814
  0
ARC
  8
0
 10
0.0
 20
34.64101615137754
 30
0.0
 40
6.0
 50
-497.88488253796277
 51
-458.9424412689814
  0
ARC
  8
0
 10
0.0
 20
34.64101615137754
 30
0.0
 40
6.0
 50
-557.8848825379628
 51
-518.9424412689814
  0
ARC
  8
0
 10
0.0
 20
34.64101615137754
 30
0.0
 40
6.0
 50
-617.8848825379628
 51
-578.9424412689814
  0
ARC
  8
0
 10
10.0
 20
51.96152422706631
 30
0.0
 40
6.0
 50
-377.88488253796277
 51
-338.9424412689814
  0
ARC
  8
0
 10
10.0
 20
51.96152422706631
 30
0.0
 40
6.0
 50
-557.8848825379628
 51
-518.9424412689814
  0
ARC
  8
0
 10
10.0
 20
51.96152422706631
 30
0.0
 40
6.0
 50
-677.8848825379628
 51
-638.9424412689814
  0
ARC
  8
0
 10
0.0
 20
69.28203230275508
 30
0.0
 40
6.0
 50
-377.88488253796277
 51
-338.9424412689814
  0
ARC
  8
0
 10
0.0
 20
69.28203230275508
 30
0.0
 40
6.0
 50
-497.88488253796277
 51
-458.9424412689814
  0
ARC
  8
0
 10
0.0
 20
69.28203230275508
 30
0.0
 40
6.0
 50
-557.8848825379628
 51
-518.9424412689814
  0
ARC
  8
0
 10
0.0
 20
69.28203230275508
 30
0.0
 40
6.0
 50
-617.8848825379628
 51
-578.9424412689814
  0
ARC
  8
0
 10
0.0
 20
69.28203230275508
 30
0.0
 40
6.0
 50
-677.8848825379628
 51
-638.9424412689814
  0
ARC
  8
0
 10
20.0
 20
0.0
 30
0.0
 40
6.0
 50
-377.88488253796277
 51
-338.9424412689814
  0
ARC
  8
0
 10
20.0
 20
0.0
 30
0.0
 40
6.0
 50
-437.88488253796277
 51
-398.9424412689814
  0
ARC
  8
0
 10
20.0
 20
0.0
 30
0.0
 40
6.0
 50
-497.88488253796277
 51
-458.9424412689814
  0
ARC
  8
0
 10
30.0
 20
17.32050807568877
 30
0.0
 40
6.0
 50
-377.88488253796277
 51
-338.9424412689814
  0
ARC
  8
0
 10
30.0
 20
17.32050807568877
 30
0.0
 40
6.0
 50
-437.88488253796277
 51
-398.9424412689814
  0
ARC
  8
0
 10
30.0
 20
17.32050807568877
 30
0.0
 40
6.0
 50
-677.8848825379628
 51
-638.9424412689814
  0
ARC
  8
0
 10
20.0
 20
34.64101615137754
 30
0.0
 40
6.0
 50
-377.88488253796277
 51
-338.9424412689814
  0
ARC
  8
0
 10
20.0
 20
34.64101615137754
 30
0.0
 40
6.0
 50
-677.8848825379628
 51
-638.9424412689814
  0
ARC
  8
0
 10
30.0
 20
51.96152422706631
 30
0.0
 40
6.0
 50
19.47122063449069
 51
40.52877936550931
  0
ARC
  8
0
 10
30.0
 20
51.96152422706631
 30
0.0
 40
6.0
 50
79.47122063449069
 51
100.52877936550931
  0
ARC
  8
0
 10
30.0
 20
51.96152422706631
 30
0.0
 40
6.0
 50
139.4712206344907
 51
160.5287793655093
  0
ARC
  8
0
 10
30.0
 20
51.96152422706631
 30
0.0
 40
6.0
 50
199.4712206344907
 51
220.5287793655093
  0
ARC
  8
0
 10
30.0
 20
51.96152422706631
 30
0.0
 40
6.0
 50
259.4712206344907
 51
280.5287793655093
  0
ARC
  8
0
 10
30.0
 20
51.96152422706631
 30
0.0
 40
6.0
 50
319.4712206344907
 51
340.5287793655093
  0
LINE
  8
0
 10
31.096376317177313
 20
57.86050371263267
 30
0.0
 11
35.43952206768493
 21
65.38305281718873
 31
0.0
  0
LINE
  8
0
 10
34.56047793231507
 20
55.86050371263267
 30
0.0
 11
38.90362368282268
 21
63.38305281718873
 31
0.0
  0
LINE
  8
0
 10
34.56047793231507
 20
48.062544741499956
 30
0.0
 11
38.90362368282268
 21
40.5399956369439
 31
0.0
  0
LINE
  8
0
 10
31.096376317177313
 20
46.062544741499956
 30
0.0
 11
35.43952206768493
 21
38.5399956369439
 31
0.0
  0
LINE
  8
0
 10
35.65685424949238
 20
53.96152422706631
 30
0.0
 11
44.34314575050762
 21
53.96152422706631
 31
0.0
  0
LINE
  8
0
 10
35.65685424949238
 20
49.96152422706631
 30
0.0
 11
44.34314575050762
 21
49.96152422706631
 31
0.0
  0
ARC
  8
0
 10
20.0
 20
69.28203230275508
 30
0.0
 40
6.0
 50
19.47122063449069
 51
40.52877936550931
  0
ARC
  8
0
 10
20.0
 20
69.28203230275508
 30
0.0
 40
6.0
 50
79.47122063449069
 51
100.52877936550931
  0
ARC
  8
0
 10
20.0
 20
69.28203230275508
 30
0.0
 40
6.0
 50
139.4712206344907
 51
160.5287793655093
  0
ARC
  8
0
 10
20.0
 20
69.28203230275508
 30
0.0
 40
6.0
 50
199.4712206344907
 51
220.5287793655093
  0
ARC
  8
0
 10
20.0
 20
69.28203230275508
 30
0.0
 40
6.0
 50
259.4712206344907
 51
280.5287793655093
  0
ARC
  8
0
 10
20.0
 20
69.28203230275508
 30
0.0
 40
6.0
 50
319.4712206344907
 51
340.5287793655093
  0
LINE
  8
0
 10
24.56047793231507
 20
65.38305281718873
 30
0.0
 11
28.903623682822687
 21
57.86050371263267
 31
0.0
  0
LINE
  8
0
 10
21.096376317177313
 20
63.38305281718873
 30
0.0
 11
25.43952206768493
 21
55.86050371263267
 31
0.0
  0
LINE
  8
0
 10
25.65685424949238
 20
71.28203230275508
 30
0.0
 11
34.34314575050762
 21
71.28203230275508
 31
0.0
  0
LINE
  8
0
 10
25.65685424949238
 20
67.28203230275508
 30
0.0
 11
34.34314575050762
 21
67.28203230275508
 31
0.0
  0
ARC
  8
0
 10
40.0
 20
0.0
 30
0.0
 40
6.0
 50
19.47122063449069
 51
40.52877936550931
  0
ARC
  8
0
 10
40.0
 20
0.0
 30
0.0
 40
6.0
 50
79.47122063449069
 51
100.52877936550931
  0
ARC
  8
0
 10
40.0
 20
0.0
 30
0.0
 40
6.0
 50
139.4712206344907
 51
160.5287793655093
  0
ARC
  8
0
 10
40.0
 20
0.0
 30
0.0
 40
6.0
 50
199.4712206344907
 51
220.5287793655093
  0
ARC
  8
0
 10
40.0
 20
0.0
 30
0.0
 40
6.0
 50
259.4712206344907
 51
280.5287793655093
  0
ARC
  8
0
 10
40.0
 20
0.0
 30
0.0
 40
6.0
 50
319.4712206344907
 51
340.5287793655093
  0
LINE
  8
0
 10
41.09637631717732
 20
5.898979485566356
 30
0.0
 11
45.43952206768493
 21
13.421528590122415
 31
0.0
  0
LINE
  8
0
 10
44.56047793231507
 20
3.8989794855663558
 30
0.0
 11
48.90362368282268
 21
11.421528590122415
 31
0.0
  0
LINE
  8
0
 10
45.65685424949238
 20
2.0
 30
0.0
 11
54.34314575050762
 21
2.0
 31
0.0
  0
LINE
  8
0
 10
45.65685424949238
 20
-2.0
 30
0.0
 11
54.34314575050762
 21
-2.0
 31
0.0
  0
ARC
  8
0
 10
50.0
 20
17.32050807568877
 30
0.0
 40
6.0
 50
19.47122063449069
 51
40.52877936550931
  0
ARC
  8
0
 10
50.0
 20
17.32050807568877
 30
0.0
 40
6.0
 50
79.47122063449069
 51
100.52877936550931
  0
ARC
  8
0
 10
50.0
 20
17.32050807568877
 30
0.0
 40
6.0
 50
139.4712206344907
 51
160.5287793655093
  0
ARC
  8
0
 10
50.0
 20
17.32050807568877
 30
0.0
 40
6.0
 50
199.4712206344907
 51
220.5287793655093
  0
ARC
  8
0
 10
50.0
 20
17.32050807568877
 30
0.0
 40
6.0
 50
259.4712206344907
 51
280.5287793655093
  0
ARC
  8
0
 10
50.0
 20
17.32050807568877
 30
0.0
 40
6.0
 50
319.4712206344907
 51
340.5287793655093
  0
LINE
  8
0
 10
54.56047793231507
 20
13.421528590122415
 30
0.0
 11
58.90362368282268
 21
5.898979485566356
 31
0.0
  0
LINE
  8
0
 10
51.09637631717732
 20
11.421528590122415
 30
0.0
 11
55.43952206768493
 21
3.8989794855663558
 31
0.0
  0
ARC
  8
0
 10
40.0
 20
34.64101615137754
 30
0.0
 40
6.0
 50
19.47122063449069
 51
40.52877936550931
  0
ARC
  8
0
 10
40.0
 20
34.64101615137754
 30
0.0
 40
6.0
 50
79.47122063449069
 51
100.52877936550931
  0
ARC
  8
0
 10
40.0
 20
34.64101615137754
 30
0.0
 40
6.0
 50
139.4712206344907
 51
160.5287793655093
  0
ARC
  8
0
 10
40.0
 20
34.64101615137754
 30
0.0
 40
6.0
 50
199.4712206344907
 51
220.5287793655093
  0
ARC
  8
0
 10
40.0
 20
34.64101615137754
 30
0.0
 40
6.0
 50
259.4712206344907
 51
280.5287793655093
  0
ARC
  8
0
 10
40.0
 20
34.64101615137754
 30
0.0
 40
6.0
 50
319.4712206344907
 51
340.5287793655093
  0
LINE
  8
0
 10
41.09637631717732
 20
40.5399956369439
 30
0.0
 11
45.43952206768493
 21
48.062544741499956
 31
0.0
  0
LINE
  8
0
 10
44.56047793231507
 20
38.5399956369439
 30
0.0
 11
48.90362368282268
 21
46.062544741499956
 31
0.0
  0
LINE
  8
0
 10
44.56047793231507
 20
30.742036665811185
 30
0.0
 11
48.90362368282268
 21
23.21948756125513
 31
0.0
  0
LINE
  8
0
 10
41.09637631717732
 20
28.742036665811185
 30
0.0
 11
45.43952206768493
 21
21.21948756125513
 31
0.0
  0
ARC
  8
0
 10
50.0
 20
51.96152422706631
 30
0.0
 40
6.0
 50
19.47122063449069
 51
40.52877936550931
  0
ARC
  8
0
 10
50.0
 20
51.96152422706631
 30
0.0
 40
6.0
 50
79.47122063449069
 51
100.52877936550931
  0
ARC
  8
0
 10
50.0
 20
51.96152422706631
 30
0.0
 40
6.0
 50
139.4712206344907
 51
160.5287793655093
  0
ARC
  8
0
 10
50.0
 20
51.96152422706631
 30
0.0
 40
6.0
 50
199.4712206344907
 51
220.5287793655093
  0
ARC
  8
0
 10
50.0
 20
51.96152422706631
 30
0.0
 40
6.0
 50
259.4712206344907
 51
280.5287793655093
  0
ARC
  8
0
 10
50.0
 20
51.96152422706631
 30
0.0
 40
6.0
 50
319.4712206344907
 51
340.5287793655093
  0
ARC
  8
0
 10
40.0
 20
69.28203230275508
 30
0.0
 40
6.0
 50
19.47122063449069
 51
40.52877936550931
  0
ARC
  8
0
 10
40.0
 20
69.28203230275508
 30
0.0
 40
6.0
 50
79.47122063449069
 51
100.52877936550931
  0
ARC
  8
0
 10
40.0
 20
69.28203230275508
 30
0.0
 40
6.0
 50
139.4712206344907
 51
160.5287793655093
  0
ARC
  8
0
 10
40.0
 20
69.28203230275508
 30
0.0
 40
6.0
 50
199.4712206344907
 51
220.5287793655093
  0
ARC
  8
0
 10
40.0
 20
69.28203230275508
 30
0.0
 40
6.0
 50
259.4712206344907
 51
280.5287793655093
  0
ARC
  8
0
 10
40.0
 20
69.28203230275508
 30
0.0
 40
6.0
 50
319.4712206344907
 51
340.5287793655093
  0
LINE
  8
0
 10
44.56047793231507
 20
65.38305281718873
 30
0.0
 11
48.90362368282268
 21
57.86050371263267
 31
0.0
  0
LINE
  8
0
 10
41.09637631717732
 20
63.38305281718873
 30
0.0
 11
45.43952206768493
 21
55.86050371263267
 31
0.0
  0
ARC
  8
0
 10
60.0
 20
0.0
 30
0.0
 40
6.0
 50
19.47122063449069
 51
40.52877936550931
  0
ARC
  8
0
 10
60.0
 20
0.0
 30
0.0
 40
6.0
 50
79.47122063449069
 51
100.52877936550931
  0
ARC
  8
0
 10
60.0
 20
0.0
 30
0.0
 40
6.0
 50
139.4712206344907
 51
160.5287793655093
  0
ARC
  8
0
 10
60.0
 20
0.0
 30
0.0
 40
6.0
 50
199.4712206344907
 51
220.5287793655093
  0
ARC
  8
0
 10
60.0
 20
0.0
 30
0.0
 40
6.0
 50
259.4712206344907
 51
280.5287793655093
  0
ARC
  8
0
 10
60.0
 20
0.0
 30
0.0
 40
6.0
 50
319.4712206344907
 51
340.5287793655093
  0
ARC
  8
0
 10
30.0
 20
51.96152422706631
 30
0.0
 40
6.0
 50
-497.88488253796277
 51
-458.9424412689814
  0
ARC
  8
0
 10
30.0
 20
51.96152422706631
 30
0.0
 40
6.0
 50
-557.8848825379628
 51
-518.9424412689814
  0
ARC
  8
0
 10
20.0
 20
69.28203230275508
 30
0.0
 40
6.0
 50
-497.88488253796277
 51
-458.9424412689814
  0
ARC
  8
0
 10
20.0
 20
69.28203230275508
 30
0.0
 40
6.0
 50
-557.8848825379628
 51
-518.9424412689814
  0
ARC
  8
0
 10
20.0
 20
69.28203230275508
 30
0.0
 40
6.0
 50
-617.8848825379628
 51
-578.9424412689814
  0
ARC
  8
0
 10
20.0
 20
69.28203230275508
 30
0.0
 40
6.0
 50
-677.8848825379628
 51
-638.9424412689814
  0
ARC
  8
0
 10
40.0
 20
0.0
 30
0.0
 40
6.0
 50
-437.88488253796277
 51
-398.9424412689814
  0
ARC
  8
0
 10
40.0
 20
0.0
 30
0.0
 40
6.0
 50
-497.88488253796277
 51
-458.9424412689814
  0
ARC
  8
0
 10
40.0
 20
0.0
 30
0.0
 40
6.0
 50
-557.8848825379628
 51
-518.9424412689814
  0
ARC
  8
0
 10
40.0
 20
0.0
 30
0.0
 40
6.0
 50
-617.8848825379628
 51
-578.9424412689814
  0
ARC
  8
0
 10
50.0
 20
17.32050807568877
 30
0.0
 40
6.0
 50
-377.88488253796277
 51
-338.9424412689814
  0
ARC
  8
0
 10
50.0
 20
17.32050807568877
 30
0.0
 40
6.0
 50
-557.8848825379628
 51
-518.9424412689814
  0
ARC
  8
0
 10
50.0
 20
17.32050807568877
 30
0.0
 40
6.0
 50
-677.8848825379628
 51
-638.9424412689814
  0
ARC
  8
0
 10
40.0
 20
34.64101615137754
 30
0.0
 40
6.0
 50
-377.88488253796277
 51
-338.9424412689814
  0
ARC
  8
0
 10
40.0
 20
34.64101615137754
 30
0.0
 40
6.0
 50
-497.88488253796277
 51
-458.9424412689814
  0
ARC
  8
0
 10
40.0
 20
34.64101615137754
 30
0.0
 40
6.0
 50
-557.8848825379628
 51
-518.9424412689814
  0
ARC
  8
0
 10
50.0
 20
51.96152422706631
 30
0.0
 40
6.0
 50
-377.88488253796277
 51
-338.9424412689814
  0
ARC
  8
0
 10
50.0
 20
51.96152422706631
 30
0.0
 40
6.0
 50
-437.88488253796277
 51
-398.9424412689814
  0
ARC
  8
0
 10
50.0
 20
51.96152422706631
 30
0.0
 40
6.0
 50
-677.8848825379628
 51
-638.9424412689814
  0
ARC
  8
0
 10
40.0
 20
69.28203230275508
 30
0.0
 40
6.0
 50
-377.88488253796277
 51
-338.9424412689814
  0
ARC
  8
0
 10
40.0
 20
69.28203230275508
 30
0.0
 40
6.0
 50
-617.8848825379628
 51
-578.9424412689814
  0
ARC
  8
0
 10
40.0
 20
69.28203230275508
 30
0.0
 40
6.0
 50
-677.8848825379628
 51
-638.9424412689814
  0
ARC
  8
0
 10
60.0
 20
0.0
 30
0.0
 40
6.0
 50
-377.88488253796277
 51
-338.9424412689814
  0
ARC
  8
0
 10
60.0
 20
0.0
 30
0.0
 40
6.0
 50
-437.88488253796277
 51
-398.9424412689814
  0
ARC
  8
0
 10
60.0
 20
0.0
 30
0.0
 40
6.0
 50
-497.88488253796277
 51
-458.9424412689814
  0
ARC
  8
0
 10
60.0
 20
0.0
 30
0.0
 40
6.0
 50
-677.8848825379628
 51
-638.9424412689814
  0
ENDSEC
  0
EOF
